<svg version="1.1" xmlns="http://www.w3.org/2000/svg" xmlns:xlink="http://www.w3.org/1999/xlink" width="409.3916015625" height="473"><defs/><g>
    <text></text>
    <g transform="translate(-230,-94) scale(1,1)"><rect fill="#C0C0C0" stroke="none" x="335" y="111" width="176" height="220" opacity="0.2"/></g>
    <g transform="translate(-230,-94) scale(1,1)"><rect fill="#fff5d8" stroke="none" x="328" y="104" width="176" height="220"/></g>
    <g transform="translate(-230,-94) scale(1,1)"><path fill="none" stroke="#000000" d="M 328 104 L 504 104 L 504 324 L 328 324 L 328 104 Z Z" stroke-miterlimit="10"/></g>
    <g transform="translate(-230,-94) scale(1,1)"><path fill="none" stroke="#000000" d="M 328 129 L 504 129" stroke-miterlimit="10"/></g>
    <g transform="translate(-230,-94) scale(1,1)"><path fill="none" stroke="#000000" d="M 328 227 L 504 227" stroke-miterlimit="10"/></g>
    <g transform="translate(-230,-94) scale(1,1)"><g><path fill="none" stroke="none"/>
        <text fill="#000000" stroke="none" font-family="Arial" font-size="13px" font-style="normal" font-weight="bold" text-decoration="none" x="396.1318359375" y="123.5">Device</text></g></g>
    <g transform="translate(-230,-94) scale(1,1)">
        <g><path fill="none" stroke="none"/><text fill="#000000" stroke="none" font-family="Arial" font-size="13px" font-style="normal" font-weight="normal" text-decoration="none" x="333" y="146.5">-id: String</text></g></g>
    <g transform="translate(-230,-94) scale(1,1)">
        <g><path fill="none" stroke="none"/><text fill="#000000" stroke="none" font-family="Arial" font-size="13px" font-style="normal" font-weight="normal" text-decoration="none" x="333" y="161.5">-type: String</text></g></g>
    <g transform="translate(-230,-94) scale(1,1)">
        <g><path fill="none" stroke="none"/><text fill="#000000" stroke="none" font-family="Arial" font-size="13px" font-style="normal" font-weight="normal" text-decoration="none" x="333" y="176.5">-name: String</text></g></g>
    <g transform="translate(-230,-94) scale(1,1)">
        <g><path fill="none" stroke="none"/><text fill="#000000" stroke="none" font-family="Arial" font-size="13px" font-style="normal" font-weight="normal" text-decoration="none" x="333" y="191.5">-price: double</text></g></g>
    <g transform="translate(-230,-94) scale(1,1)">
        <g><path fill="none" stroke="none"/><text fill="#000000" stroke="none" font-family="Arial" font-size="13px" font-style="normal" font-weight="normal" text-decoration="none" x="333" y="206.5">-inStock: boolean</text></g></g>
    <g transform="translate(-230,-94) scale(1,1)">
        <g><path fill="none" stroke="none"/><text fill="#000000" stroke="none" font-family="Arial" font-size="13px" font-style="normal" font-weight="normal" text-decoration="none" x="333" y="221.5">-backlight: boolean</text></g></g>
    <g transform="translate(-230,-94) scale(1,1)">
        <g><path fill="none" stroke="none"/><text fill="#000000" stroke="none" font-family="Arial" font-size="13px" font-style="normal" font-weight="normal" text-decoration="none" x="333" y="244.5">+setType(String): void</text></g></g>
    <g transform="translate(-230,-94) scale(1,1)">
        <g><path fill="none" stroke="none"/><text fill="#000000" stroke="none" font-family="Arial" font-size="13px" font-style="normal" font-weight="normal" text-decoration="none" x="333" y="259.5">+setPrice(double): void</text></g></g>
    <g transform="translate(-230,-94) scale(1,1)">
        <g><path fill="none" stroke="none"/><text fill="#000000" stroke="none" font-family="Arial" font-size="13px" font-style="normal" font-weight="normal" text-decoration="none" x="333" y="274.5">+setBacklight(boolean): void</text></g></g>
    <g transform="translate(-230,-94) scale(1,1)">
        <g><path fill="none" stroke="none"/><text fill="#000000" stroke="none" font-family="Arial" font-size="13px" font-style="normal" font-weight="normal" text-decoration="none" x="333" y="289.5">+setId(String): void</text></g></g>
    <g transform="translate(-230,-94) scale(1,1)">
        <g><path fill="none" stroke="none"/><text fill="#000000" stroke="none" font-family="Arial" font-size="13px" font-style="normal" font-weight="normal" text-decoration="none" x="333" y="304.5">+setName(String): void</text></g></g>
    <g transform="translate(-230,-94) scale(1,1)">
        <g><path fill="none" stroke="none"/><text fill="#000000" stroke="none" font-family="Arial" font-size="13px" font-style="normal" font-weight="normal" text-decoration="none" x="333" y="319.5">+setInStock(boolean): void</text></g></g>
    <g transform="translate(-230,-94) scale(1,1)"><rect fill="#C0C0C0" stroke="none" x="247" y="479" width="130.0244140625" height="85" opacity="0.2"/></g>
    <g transform="translate(-230,-94) scale(1,1)"><rect fill="#fff5d8" stroke="none" x="240" y="472" width="130.0244140625" height="85"/></g>
    <g transform="translate(-230,-94) scale(1,1)"><path fill="none" stroke="#000000" d="M 240 472 L 370.0244140625 472 L 370.0244140625 557 L 240 557 L 240 472 Z Z" stroke-miterlimit="10"/></g>
    <g transform="translate(-230,-94) scale(1,1)"><path fill="none" stroke="#000000" d="M 240 497 L 370.0244140625 497" stroke-miterlimit="10"/></g>
    <g transform="translate(-230,-94) scale(1,1)"><path fill="none" stroke="#000000" d="M 240 520 L 370.0244140625 520" stroke-miterlimit="10"/></g>
    <g transform="translate(-230,-94) scale(1,1)">
        <g><path fill="none" stroke="none"/><text fill="#000000" stroke="none" font-family="Arial" font-size="13px" font-style="normal" font-weight="bold" text-decoration="none" x="255.516357421875" y="491.5">PeripheralDevice</text></g></g>
    <g transform="translate(-230,-94) scale(1,1)">
        <g><path fill="none" stroke="none"/><text fill="#000000" stroke="none" font-family="Arial" font-size="13px" font-style="normal" font-weight="normal" text-decoration="none" x="245" y="514.5">-connection: String</text></g></g>
    <g transform="translate(-230,-94) scale(1,1)">
        <g><path fill="none" stroke="none"/><text fill="#000000" stroke="none" font-family="Arial" font-size="13px" font-style="normal" font-weight="normal" text-decoration="none" x="245" y="539.5">+setSlot(String): void</text></g></g>
    <g transform="translate(-230,-94) scale(1,1)"><rect fill="#C0C0C0" stroke="none" x="463" y="479" width="173.3916015625" height="85" opacity="0.2"/></g>
    <g transform="translate(-230,-94) scale(1,1)"><rect fill="#fff5d8" stroke="none" x="456" y="472" width="173.3916015625" height="85"/></g>
    <g transform="translate(-230,-94) scale(1,1)"><path fill="none" stroke="#000000" d="M 456 472 L 629.3916015625 472 L 629.3916015625 557 L 456 557 L 456 472 Z Z" stroke-miterlimit="10"/></g>
    <g transform="translate(-230,-94) scale(1,1)"><path fill="none" stroke="#000000" d="M 456 497 L 629.3916015625 497" stroke-miterlimit="10"/></g>
    <g transform="translate(-230,-94) scale(1,1)"><path fill="none" stroke="#000000" d="M 456 520 L 629.3916015625 520" stroke-miterlimit="10"/></g>
    <g transform="translate(-230,-94) scale(1,1)">
        <g><path fill="none" stroke="none"/><text fill="#000000" stroke="none" font-family="Arial" font-size="13px" font-style="normal" font-weight="bold" text-decoration="none" x="481.27587890625" y="491.5">NonPeripheralDevice</text></g></g>
    <g transform="translate(-230,-94) scale(1,1)">
        <g><path fill="none" stroke="none"/><text fill="#000000" stroke="none" font-family="Arial" font-size="13px" font-style="normal" font-weight="normal" text-decoration="none" x="461" y="514.5">-slot: String</text></g></g>
    <g transform="translate(-230,-94) scale(1,1)"><g><path fill="none" stroke="none"/><text fill="#000000" stroke="none" font-family="Arial" font-size="13px" font-style="normal" font-weight="normal" text-decoration="none" x="461" y="539.5">+setConnection(String): void</text></g></g>
    <g transform="translate(-230,-94) scale(1,1)"><path fill="none" stroke="#000000" d="M 321 471 L 375 325" stroke-miterlimit="10"/></g>
    <g transform="translate(-230,-94) scale(1,1)"><path fill="#FFFFFF" stroke="none" d="M 375.84546425183896 346.98374832004004 L 375 325 L 360.05297599272745 341.1426910187248"/></g>
    <g transform="translate(-230,-94) scale(1,1)"><path fill="none" stroke="#000000" d="M 375.84546425183896 346.98374832004004 L 375 325 L 360.05297599272745 341.1426910187248 L 375.84546425183896 346.98374832004004" stroke-miterlimit="10"/></g>
    <g transform="translate(-230,-94) scale(1,1)"><path fill="none" stroke="#000000" d="M 524 471 L 463 325" stroke-miterlimit="10"/></g>
    <g transform="translate(-230,-94) scale(1,1)"><path fill="#FFFFFF" stroke="none" d="M 478.60394582132994 340.50860647527685 L 463 325 L 463.06741509810803 346.9998967089518"/></g>
    <g transform="translate(-230,-94) scale(1,1)"><path fill="none" stroke="#000000" d="M 478.60394582132994 340.50860647527685 L 463 325 L 463.06741509810803 346.9998967089518 L 478.60394582132994 340.50860647527685" stroke-miterlimit="10"/></g></g></svg>
